<?xml version="1.0" encoding="utf-8"?>
<!-- Generator: Adobe Illustrator 16.0.0, SVG Export Plug-In . SVG Version: 6.00 Build 0)  -->
<!DOCTYPE svg PUBLIC "-//W3C//DTD SVG 1.1//EN" "http://www.w3.org/Graphics/SVG/1.1/DTD/svg11.dtd">
<svg version="1.1" id="Layer_1" xmlns="http://www.w3.org/2000/svg" xmlns:xlink="http://www.w3.org/1999/xlink" x="0px" y="0px"
	 width="366.667px" height="236px" viewBox="0 0 366.667 236" enable-background="new 0 0 366.667 236" xml:space="preserve">
<g>
	<g>
		<path fill="#FDB913" d="M77.652,56.201l43.613,6.977L64.459,46.856c-3.097,4.771-8.539,7.559-14.249,7.263l-19.731,55.127
			l20.117-39.329l-5.072,47.388l10.562-46.507l6.693,53.826l-1.167-54.333l23.994,58.156l-18.77-60.032l34.646,45.751L71.447,65.302
			l39.316,31.736L75.122,61.145l40.509,17.603L77.652,56.201z"/>
		<path fill="#0069AA" d="M102.761,21.785L45.586,4.033c-0.034-0.003-0.068-0.028-0.093-0.031c-0.035-0.009-0.063-0.015-0.088-0.021
			l-0.077-0.021v0.003c-8.374-2.502-17.233,2.178-19.859,10.527l-0.016-0.006L7.626,71.915l18.913,38.542l18.394-59.241
			c2.714-8.287,11.591-12.895,19.943-10.293c0.012,0,0.009-0.016,0.009-0.016l58.936,18.3L102.761,21.785z"/>
	</g>
	<g>
		<g>
			<path fill="#0069AA" d="M21.387,162.126l-2.213-6.559H8.532l-2.253,6.559H3.335l8.949-25.801h3.171l8.956,25.801H21.387z
				 M15.455,144.478c-0.588-1.693-1.335-4.021-1.587-5.092c-0.249,1.033-0.986,3.361-1.621,5.16l-2.831,8.408h8.88L15.455,144.478z"
				/>
			<path fill="#0069AA" d="M47.456,162.53c-6.158,0-9.335-3.715-9.335-10.871v-15.334h2.882v15.26c0,5.576,2.144,8.326,6.597,8.326
				c4.468,0,6.229-2.689,6.229-8.252v-15.334h2.881v15.26C56.71,158.741,53.643,162.53,47.456,162.53z"/>
			<path fill="#0069AA" d="M79.924,162.53c-3.498,0-6.628-1.512-8.653-3.572l1.92-2.141c1.947,1.887,4.197,3.094,6.854,3.094
				c3.417,0,5.567-1.693,5.567-4.418c0-2.391-1.447-3.76-6.161-5.453c-5.564-1.99-7.435-3.795-7.435-7.529
				c0-4.121,3.233-6.584,8.057-6.584c3.473,0,5.685,1.033,7.863,2.762l-1.842,2.248c-1.89-1.551-3.613-2.396-6.202-2.396
				c-3.535,0-5.004,1.768-5.004,3.797c0,2.141,0.946,3.359,6.103,5.201c5.726,2.061,7.493,3.971,7.493,7.805
				C88.484,159.401,85.313,162.53,79.924,162.53z"/>
			<path fill="#0069AA" d="M111.899,138.938v23.188h-2.869v-23.188h-7.592v-2.613h18.051v2.613H111.899z"/>
			<path fill="#0069AA" d="M134.211,162.126v-25.801h2.865v25.801H134.211z"/>
			<path fill="#0069AA" d="M169.28,162.126l-11.283-17.648c-0.548-0.885-1.507-2.576-1.836-3.242v1.76v19.131h-2.776v-25.801h2.813
				l11.171,17.998c0.535,0.883,1.493,2.57,1.823,3.234v-1.766v-19.467h2.77v25.801H169.28z"/>
			<path fill="#0069AA" d="M204.81,151.995h-6.261v10.131h-2.875v-25.801h9.658c4.692,0,8.215,2.477,8.215,7.717
				C213.547,149.157,209.987,151.995,204.81,151.995z M205.22,138.938h-6.671v10.43h6.311c3.933,0,5.813-1.799,5.813-5.227
				C210.672,140.829,208.755,138.938,205.22,138.938z"/>
			<path fill="#0069AA" d="M236.921,162.53c-6.148,0-9.322-3.715-9.322-10.871v-15.334h2.875v15.26c0,5.576,2.141,8.326,6.609,8.326
				c4.457,0,6.225-2.689,6.225-8.252v-15.334h2.875v15.26C246.183,158.741,243.12,162.53,236.921,162.53z"/>
			<path fill="#0069AA" d="M271.362,162.126h-9.248v-25.801h9.434c4.084,0,6.996,2.027,6.996,6.459c0,2.838-1.543,4.494-3.721,5.266
				c2.352,0.621,4.941,2.283,4.941,6.447C279.765,159.575,276.776,162.126,271.362,162.126z M271.437,138.938h-6.459v8.041h6.234
				c3.199,0,4.457-1.844,4.457-4.096C275.669,140.532,274.312,138.938,271.437,138.938z M271.399,149.556h-6.422v9.957h6.57
				c3.871,0,5.34-1.916,5.34-4.867C276.888,151.397,274.747,149.556,271.399,149.556z"/>
			<path fill="#0069AA" d="M294.513,162.126v-25.801h2.875v23.188h12.746v2.613H294.513z"/>
			<path fill="#0069AA" d="M325.231,162.126v-25.801h2.875v25.801H325.231z"/>
			<path fill="#0069AA" d="M353.735,162.53c-6.299,0-10.418-5.713-10.418-13.262c0-7.666,4.307-13.342,10.529-13.342
				c3.535,0,6.188,1.33,8.215,4.125l-2.289,1.736c-1.643-2.24-3.199-3.248-6-3.248c-4.432,0-7.592,4.381-7.592,10.654
				c0,6.299,3.273,10.717,7.629,10.717c2.801,0,4.705-1.244,6.361-3.385l2.004,1.729C360.294,160.808,357.495,162.53,353.735,162.53
				z"/>
		</g>
		<g>
			<path fill="#0069AA" d="M4.048,232.712V178.88h5.993v48.375h26.611v5.457H4.048z"/>
			<path fill="#0069AA" d="M54.38,232.712V178.88h5.996v53.832H54.38z"/>
			<path fill="#0069AA" d="M105.944,232.712H86.642V178.88h19.694c8.529,0,14.609,4.232,14.609,13.461
				c0,5.918-3.233,9.379-7.776,10.998c4.923,1.307,10.303,4.766,10.303,13.455C123.472,227.397,117.249,232.712,105.944,232.712z
				 M106.097,184.339H92.639v16.771h13.003c6.69,0,9.308-3.846,9.308-8.539C114.949,187.649,112.096,184.339,106.097,184.339z
				 M106.021,206.487H92.639v20.768h13.697c8.065,0,11.137-4.002,11.137-10.15C117.473,210.333,113.014,206.487,106.021,206.487z"/>
			<path fill="#0069AA" d="M170.936,209.337l11.843,23.375h-6.927l-11.532-22.914h-12.764v22.914h-5.99V178.88h21.293
				c9.46,0,16.767,4.848,16.767,15.234C183.625,202.491,178.628,207.72,170.936,209.337z M166.622,184.339h-15.066v20.082h14.32
				c7.984,0,11.75-3.311,11.75-10.082C177.626,187.729,173.779,184.339,166.622,184.339z"/>
			<path fill="#0069AA" d="M238.788,232.712l-4.617-13.691h-22.217l-4.692,13.691h-6.149l18.682-53.832h6.623l18.67,53.832H238.788z
				 M226.417,195.876c-1.246-3.535-2.789-8.383-3.311-10.611c-0.549,2.154-2.08,6.996-3.387,10.768l-5.924,17.525h18.533
				L226.417,195.876z"/>
			<path fill="#0069AA" d="M292.409,209.337l11.838,23.375h-6.92l-11.539-22.914h-12.771v22.914h-5.998V178.88h21.297
				c9.459,0,16.766,4.848,16.766,15.234C305.081,202.491,300.089,207.72,292.409,209.337z M288.091,184.339h-15.074v20.082h14.303
				c8.004,0,11.773-3.311,11.773-10.082C299.093,187.729,295.235,184.339,288.091,184.339z"/>
			<path fill="#0069AA" d="M344.874,211.341v21.371h-5.988v-21.309l-18.459-32.523h6.859l8.6,15.459
				c2.154,3.92,4.543,8.383,6.063,11.539c1.543-3.156,3.934-7.693,6.086-11.539l8.613-15.459h6.684L344.874,211.341z"/>
		</g>
	</g>
</g>
</svg>
