<?xml version="1.0" encoding="utf-8"?>
<!-- Generator: Adobe Illustrator 16.0.0, SVG Export Plug-In . SVG Version: 6.00 Build 0)  -->
<!DOCTYPE svg PUBLIC "-//W3C//DTD SVG 1.1//EN" "http://www.w3.org/Graphics/SVG/1.1/DTD/svg11.dtd">
<svg version="1.1" id="Layer_1" xmlns="http://www.w3.org/2000/svg" xmlns:xlink="http://www.w3.org/1999/xlink" x="0px" y="0px"
	 width="275px" height="275px" viewBox="0 0 275 275" enable-background="new 0 0 275 275" xml:space="preserve">
<g>
	<path id="Blue_1_" fill="#3C5A99" d="M256.217,270.947c8.134,0,14.729-6.596,14.729-14.73V18.783c0-8.137-6.596-14.73-14.729-14.73
		H18.784c-8.138,0-14.73,6.594-14.73,14.73v237.434c0,8.135,6.593,14.73,14.73,14.73H256.217z"/>
	<path id="f" fill="#FFFFFF" d="M188.205,270.947V167.592h34.692l5.194-40.28h-39.887v-25.717c0-11.662,3.238-19.609,19.962-19.609
		l21.329-0.01V45.95c-3.689-0.49-16.351-1.587-31.08-1.587c-30.753,0-51.807,18.771-51.807,53.244v29.705h-34.781v40.28h34.781
		v103.355H188.205z"/>
</g>
</svg>
