<?xml version="1.0" encoding="utf-8"?>
<!-- Generator: Adobe Illustrator 16.0.0, SVG Export Plug-In . SVG Version: 6.00 Build 0)  -->
<!DOCTYPE svg PUBLIC "-//W3C//DTD SVG 1.1//EN" "http://www.w3.org/Graphics/SVG/1.1/DTD/svg11.dtd">
<svg version="1.1" id="Layer_1" xmlns="http://www.w3.org/2000/svg" xmlns:xlink="http://www.w3.org/1999/xlink" x="0px" y="0px"
	 width="144px" height="28px" viewBox="0 0 144 28" enable-background="new 0 0 144 28" xml:space="preserve">
<g>
	<path fill="#F7A800" d="M4.625,13.699c0.552-0.778,1.165-1.382,1.837-1.812c0.672-0.429,1.345-0.644,2.017-0.644
		c1,0,1.5,0.666,1.5,1.998v0.457c0.51-0.754,1.074-1.352,1.692-1.793c0.618-0.441,1.206-0.662,1.764-0.662s1.004,0.238,1.339,0.714
		c0.335,0.477,0.502,1.115,0.502,1.915c0,0.296-0.012,0.588-0.035,0.876l-0.29,3.842l-0.046,0.504l0.048,0.228
		c0.072,0.185,0.204,0.276,0.396,0.276c0.392,0,0.787-0.312,1.187-0.935c0.09-0.136,0.188-0.204,0.294-0.204
		c0.155,0,0.233,0.096,0.233,0.286c0,0.279-0.241,0.692-0.722,1.241c-0.634,0.724-1.267,1.086-1.9,1.086
		c-0.618,0-0.926-0.559-0.926-1.676c0-0.191,0.012-0.463,0.036-0.814l0.275-3.83c0.016-0.231,0.024-0.435,0.024-0.61
		c0-1.245-0.424-1.868-1.271-1.868c-0.591,0-1.119,0.418-1.582,1.251c-0.463,0.834-0.779,1.93-0.947,3.286l-0.456,3.663
		c-0.032,0.239-0.102,0.399-0.21,0.479c-0.108,0.08-0.313,0.12-0.617,0.12c-0.392,0-0.587-0.128-0.587-0.383l0.024-0.216
		l0.647-5.327c0.04-0.311,0.06-0.674,0.06-1.089c0-0.551-0.13-0.989-0.391-1.316C8.262,12.415,7.911,12.25,7.47,12.25
		c-0.617,0-1.184,0.403-1.701,1.209s-0.846,1.792-0.987,2.957l-0.483,4.058c-0.032,0.239-0.102,0.399-0.21,0.479
		c-0.107,0.08-0.313,0.12-0.617,0.12c-0.392,0-0.587-0.128-0.587-0.384c0-0.04,0.008-0.112,0.024-0.217l0.695-5.738
		c0.032-0.239,0.048-0.443,0.048-0.611c0-0.785-0.172-1.188-0.515-1.213c-0.352-0.024-0.683,0.335-0.995,1.076
		c-0.072,0.186-0.148,0.274-0.228,0.267c-0.128-0.008-0.192-0.128-0.192-0.359c0-0.528,0.225-1.098,0.675-1.709
		s0.87-0.917,1.261-0.917C4.303,11.267,4.625,12.078,4.625,13.699z"/>
	<path fill="#F7A800" d="M23.01,11.16c1.063,0,1.91,0.354,2.541,1.061s0.947,1.656,0.947,2.847c0,1.687-0.471,3.123-1.414,4.31
		c-0.943,1.187-2.086,1.78-3.428,1.78c-1.015,0-1.84-0.378-2.476-1.133s-0.953-1.732-0.953-2.931c0-0.887,0.186-1.784,0.557-2.691
		c0.372-0.906,0.845-1.624,1.42-2.151C20.996,11.523,21.931,11.16,23.01,11.16z M23.041,11.747c-0.913,0-1.676,0.516-2.289,1.545
		c-0.613,1.029-0.919,2.306-0.919,3.83c0,2.234,0.681,3.352,2.043,3.352c0.825,0,1.536-0.549,2.132-1.646
		c0.597-1.098,0.895-2.412,0.895-3.944C24.903,12.792,24.283,11.747,23.041,11.747z"/>
	<path fill="#F7A800" d="M30.997,13.701c0.878-1.638,1.804-2.457,2.778-2.457c0.559,0,0.838,0.19,0.838,0.572
		c0,0.096-0.024,0.219-0.072,0.369c-0.056,0.176-0.088,0.287-0.096,0.334l-0.144,0.572c-0.057,0.263-0.18,0.397-0.367,0.405
		c-0.098,0.009-0.184-0.079-0.257-0.264c-0.183-0.455-0.465-0.683-0.846-0.683c-0.374,0-0.696,0.408-0.966,1.225
		c-0.271,0.815-0.511,2.112-0.724,3.889l-0.341,2.809l-0.012,0.132c-0.032,0.313-0.284,0.469-0.755,0.469
		c-0.423,0-0.635-0.128-0.635-0.384c0-0.057,0.004-0.129,0.012-0.217l0.587-4.693c0.032-0.265,0.048-0.584,0.048-0.961
		c0-1.185-0.272-1.776-0.815-1.776c-0.24,0-0.46,0.133-0.66,0.398s-0.328,0.591-0.383,0.978c-0.04,0.306-0.136,0.458-0.288,0.458
		c-0.184,0-0.276-0.191-0.276-0.575c0-0.815,0.203-1.486,0.61-2.014c0.191-0.248,0.426-0.472,0.706-0.672
		c0.279-0.199,0.502-0.299,0.67-0.299C30.128,11.316,30.59,12.111,30.997,13.701z"/>
	<path fill="#F7A800" d="M36.495,16.23c-0.04,0.345-0.06,0.621-0.06,0.83c0,0.817,0.271,1.511,0.812,2.08s1.201,0.854,1.98,0.854
		c0.986,0,1.774-0.303,2.362-0.908c0.188-0.186,0.311-0.278,0.368-0.278c0.114,0,0.171,0.076,0.171,0.228
		c0,0.264-0.284,0.62-0.851,1.067c-0.911,0.703-1.926,1.055-3.044,1.055c-0.975,0-1.749-0.306-2.32-0.917s-0.857-1.444-0.857-2.499
		c0-1.614,0.538-3.115,1.612-4.501c1.075-1.387,2.235-2.08,3.482-2.08c0.607,0,1.105,0.164,1.493,0.491
		c0.387,0.328,0.581,0.751,0.581,1.271c0,0.951-0.626,1.782-1.878,2.493C39.389,15.958,38.105,16.23,36.495,16.23z M36.555,15.787
		c1.207,0,2.221-0.277,3.044-0.833s1.235-1.245,1.235-2.068c0-0.743-0.376-1.114-1.127-1.114c-0.655,0-1.311,0.396-1.966,1.187
		C37.174,13.653,36.778,14.596,36.555,15.787z"/>
	<path fill="#F7A800" d="M53.012,12.766l-0.622,4.843c-0.025,0.224-0.038,0.463-0.038,0.719c0,0.384,0.096,0.703,0.289,0.959
		c0.192,0.256,0.434,0.384,0.723,0.384c0.514,0,1.047-0.296,1.602-0.887c0.147-0.16,0.273-0.24,0.379-0.24
		c0.13,0,0.196,0.063,0.196,0.19c0,0.438-0.371,0.938-1.112,1.498c-0.741,0.561-1.4,0.841-1.977,0.841
		c-0.457,0-0.825-0.212-1.106-0.635c-0.28-0.423-0.42-0.974-0.42-1.651c0-0.312,0.028-0.706,0.084-1.186l0.563-4.572
		c0.024-0.184,0.048-0.331,0.072-0.443c0.008-0.063,0.012-0.115,0.012-0.155c-0.008-0.176-0.144-0.264-0.407-0.264h-0.671
		c-0.184,0-0.276-0.069-0.276-0.207c0-0.163,0.168-0.333,0.503-0.512c0.871-0.472,1.566-1.119,2.086-1.942
		c0.13-0.208,0.265-0.312,0.403-0.312c0.179,0,0.269,0.076,0.269,0.228c0,0.08-0.024,0.192-0.072,0.336
		c-0.016,0.056-0.056,0.208-0.12,0.455l-0.084,0.396l-0.072,0.312c-0.016,0.072-0.024,0.128-0.024,0.168
		c0,0.192,0.16,0.288,0.479,0.288h0.108l1.642-0.048c0.271,0,0.407,0.105,0.407,0.316c0,0.349-0.204,0.522-0.611,0.522l-1.426-0.06
		h-0.168c-0.224,0-0.374,0.04-0.449,0.119C53.098,12.306,53.044,12.486,53.012,12.766z"/>
	<path fill="#F7A800" d="M59.468,13.284c1.211-1.416,2.349-2.124,3.416-2.124c0.601,0,1.074,0.225,1.419,0.673
		c0.345,0.449,0.517,1.058,0.517,1.827c0,0.321-0.012,0.585-0.036,0.794l-0.335,3.041c-0.04,0.329-0.06,0.669-0.06,1.021
		c0,0.714,0.184,1.07,0.552,1.07c0.535,0,1.035-0.407,1.498-1.223c0.098-0.168,0.201-0.252,0.307-0.252
		c0.131,0,0.196,0.072,0.196,0.215c0,0.366-0.229,0.855-0.688,1.469c-0.643,0.852-1.363,1.277-2.159,1.277
		c-0.724,0-1.085-0.762-1.085-2.284c0-0.28,0.012-0.621,0.036-1.021l0.228-3.329c0.016-0.297,0.024-0.521,0.024-0.673
		c0-0.93-0.364-1.395-1.092-1.395c-0.712,0-1.372,0.288-1.979,0.865c-0.552,0.521-0.896,1.326-1.032,2.416l-0.596,4.819
		l-0.012,0.133c-0.04,0.313-0.292,0.469-0.755,0.469c-0.424,0-0.635-0.128-0.635-0.383v-0.084l0.012-0.132l1.798-14.649
		c0.04-0.327,0.064-0.547,0.072-0.659c0.016-0.271-0.204-0.407-0.659-0.407h-0.599c-0.328,0-0.488-0.077-0.479-0.232
		c0.008-0.18,0.167-0.274,0.478-0.282c0.899-0.048,1.561-0.116,1.982-0.204c0.23-0.048,0.414-0.072,0.549-0.072
		c0.159,0,0.235,0.092,0.227,0.275c0,0.04-0.004,0.088-0.012,0.144L59.468,13.284z"/>
	<path fill="#F7A800" d="M73.857,18.433c-1.39,1.815-2.817,2.724-4.279,2.724c-0.583,0-1.061-0.224-1.432-0.672
		c-0.372-0.447-0.558-1.026-0.558-1.737c0-0.943,0.224-1.948,0.672-3.015c0.448-1.067,1.029-1.988,1.741-2.764
		c1.064-1.143,2.177-1.714,3.337-1.714c0.408,0,0.856,0.078,1.345,0.233c0.176,0.058,0.32,0.086,0.432,0.086
		c0.233,0,0.521-0.277,0.863-0.832c0.171-0.273,0.306-0.406,0.404-0.398c0.098,0.009,0.147,0.084,0.147,0.229
		c0,0.063-0.012,0.132-0.036,0.204c-0.016,0.056-0.068,0.28-0.156,0.672l-0.276,1.309c-0.167,0.752-0.332,1.716-0.491,2.893
		c-0.16,1.176-0.24,1.98-0.24,2.412c0,0.992,0.156,1.488,0.467,1.488c0.16,0,0.366-0.132,0.618-0.396
		c0.251-0.264,0.445-0.547,0.581-0.851c0.112-0.265,0.232-0.396,0.36-0.396c0.135,0,0.204,0.084,0.204,0.251
		c0,0.51-0.318,1.119-0.953,1.827c-0.635,0.709-1.177,1.063-1.624,1.063c-0.312,0-0.543-0.179-0.695-0.537
		S73.993,19.46,73.857,18.433z M73.349,11.771c-0.846,0-1.652,0.479-2.418,1.438c-0.502,0.631-0.93,1.429-1.281,2.392
		s-0.526,1.819-0.526,2.571c0,1.19,0.532,1.785,1.598,1.785c0.676,0,1.364-0.361,2.063-1.086c0.7-0.724,1.102-1.49,1.205-2.299
		c0.057-0.447,0.119-0.822,0.184-1.125l0.22-1.078c0.131-0.599,0.225-1.002,0.282-1.21c0.057-0.223,0.086-0.423,0.086-0.599
		c0-0.199-0.148-0.381-0.443-0.545C74.023,11.853,73.7,11.771,73.349,11.771z"/>
	<path fill="#F7A800" d="M81.933,13.627c0.545-0.738,1.158-1.32,1.842-1.746c0.684-0.425,1.337-0.638,1.961-0.638
		c0.496,0,0.909,0.256,1.241,0.769c0.331,0.512,0.497,1.156,0.497,1.933c0,0.448-0.029,1.021-0.09,1.716l-0.269,3.121
		c-0.009,0.08-0.013,0.156-0.013,0.229c0,0.416,0.115,0.624,0.348,0.624c0.399,0,0.783-0.268,1.15-0.803
		c0.16-0.24,0.305-0.36,0.432-0.36c0.145,0,0.212,0.08,0.204,0.239c-0.024,0.43-0.36,0.933-1.01,1.509
		c-0.649,0.577-1.204,0.865-1.666,0.865c-0.565,0-0.849-0.526-0.849-1.58c0-0.239,0.016-0.566,0.049-0.981l0.299-3.675
		c0.016-0.16,0.024-0.339,0.024-0.539c0-0.622-0.118-1.119-0.353-1.49c-0.235-0.371-0.548-0.557-0.938-0.557
		c-0.678,0-1.266,0.413-1.764,1.239s-0.832,1.941-1.002,3.346l-0.463,3.627c-0.024,0.239-0.093,0.399-0.205,0.479
		c-0.111,0.08-0.318,0.12-0.623,0.12c-0.407,0-0.604-0.128-0.587-0.384l0.024-0.217l0.383-3.108c0.057-0.48,0.116-0.957,0.18-1.429
		c0.112-0.824,0.168-1.448,0.168-1.873c0-0.784-0.18-1.177-0.539-1.177c-0.137,0-0.298,0.099-0.485,0.294
		c-0.188,0.196-0.326,0.414-0.413,0.653c-0.104,0.296-0.217,0.443-0.336,0.443c-0.16,0-0.24-0.111-0.24-0.334
		c0-0.541,0.238-1.12,0.715-1.737c0.478-0.616,0.928-0.925,1.354-0.925c0.288,0,0.522,0.173,0.703,0.518
		c0.18,0.345,0.27,0.795,0.27,1.348V13.627z"/>
	<path fill="#F7A800" d="M99.188,13.581c0.512-0.791,1.099-1.397,1.762-1.821s1.365-0.636,2.108-0.636
		c0.735,0,1.332,0.274,1.791,0.821c0.46,0.548,0.688,1.261,0.688,2.14c0,1.534-0.535,3.049-1.605,4.543
		c-0.56,0.783-1.213,1.4-1.96,1.852c-0.747,0.452-1.497,0.678-2.247,0.678c-0.783,0-1.403-0.18-1.858-0.539
		c-0.456-0.359-0.684-0.851-0.684-1.474c0-0.383,0.028-0.786,0.084-1.209l1.486-12.11c0.04-0.352,0.06-0.57,0.06-0.659
		c0-0.271-0.211-0.407-0.635-0.407h-0.575c-0.319,0-0.476-0.077-0.468-0.232c0.008-0.172,0.163-0.267,0.466-0.282
		c0.923-0.057,1.564-0.124,1.923-0.204c0.238-0.048,0.426-0.072,0.561-0.072c0.152,0,0.228,0.092,0.228,0.276
		c0,0.048-0.004,0.096-0.013,0.144L99.188,13.581z M98.847,16.41l-0.225,1.852c-0.032,0.272-0.048,0.537-0.048,0.793
		c0,0.979,0.487,1.467,1.462,1.467c0.983,0,1.904-0.587,2.764-1.761s1.288-2.431,1.288-3.769c0-0.826-0.18-1.476-0.54-1.948
		c-0.359-0.473-0.859-0.709-1.499-0.709c-0.84,0-1.544,0.36-2.111,1.082S99.007,15.135,98.847,16.41z"/>
	<path fill="#F7A800" d="M111.676,11.16c1.063,0,1.909,0.354,2.541,1.061s0.946,1.656,0.946,2.847c0,1.687-0.471,3.123-1.414,4.31
		s-2.086,1.78-3.428,1.78c-1.016,0-1.84-0.378-2.476-1.133s-0.952-1.732-0.952-2.931c0-0.887,0.186-1.784,0.557-2.691
		c0.371-0.906,0.846-1.624,1.42-2.151C109.662,11.523,110.597,11.16,111.676,11.16z M111.707,11.747
		c-0.913,0-1.676,0.516-2.288,1.545c-0.613,1.029-0.92,2.306-0.92,3.83c0,2.234,0.682,3.352,2.043,3.352
		c0.824,0,1.535-0.549,2.133-1.646c0.596-1.098,0.895-2.412,0.895-3.944C113.569,12.792,112.948,11.747,111.707,11.747z"/>
	<path fill="#F7A800" d="M121.481,11.16c1.063,0,1.909,0.354,2.541,1.061c0.631,0.707,0.946,1.656,0.946,2.847
		c0,1.687-0.472,3.123-1.414,4.31c-0.943,1.187-2.086,1.78-3.429,1.78c-1.015,0-1.84-0.378-2.475-1.133
		c-0.636-0.755-0.953-1.732-0.953-2.931c0-0.887,0.186-1.784,0.557-2.691c0.372-0.906,0.846-1.624,1.421-2.151
		C119.468,11.523,120.401,11.16,121.481,11.16z M121.513,11.747c-0.914,0-1.676,0.516-2.289,1.545s-0.92,2.306-0.92,3.83
		c0,2.234,0.682,3.352,2.043,3.352c0.825,0,1.536-0.549,2.133-1.646c0.597-1.098,0.895-2.412,0.895-3.944
		C123.374,12.792,122.754,11.747,121.513,11.747z"/>
	<path fill="#F7A800" d="M128.687,17.449l-0.373,3.023l-0.012,0.133c-0.041,0.312-0.293,0.468-0.756,0.468
		c-0.424,0-0.635-0.124-0.635-0.371c0-0.096,0.004-0.172,0.012-0.228l1.798-14.649c0.04-0.327,0.06-0.551,0.06-0.671
		c0-0.264-0.215-0.396-0.646-0.396h-0.6c-0.32,0-0.476-0.077-0.467-0.232c0.008-0.18,0.164-0.274,0.469-0.282
		c0.93-0.048,1.592-0.116,1.984-0.204c0.225-0.048,0.414-0.072,0.566-0.072c0.128,0,0.2,0.092,0.217,0.275v0.145l-1.387,11.25
		c-0.009,0.056-0.017,0.107-0.025,0.155l-0.012,0.108c0,0.111,0.036,0.172,0.107,0.18c0.049,0.008,0.141-0.04,0.276-0.145
		l0.155-0.12l0.73-0.527c1.334-0.977,2.184-1.965,2.551-2.965c0.168-0.472,0.322-0.784,0.462-0.936
		c0.14-0.152,0.341-0.229,0.604-0.229c0.456,0,0.684,0.248,0.684,0.744c0,0.736-0.887,1.725-2.66,2.964
		c-0.377,0.265-0.568,0.433-0.576,0.504c0,0.049,0.036,0.116,0.107,0.205c0.209,0.256,0.412,0.563,0.611,0.924l1.344,2.378
		c0.199,0.352,0.395,0.528,0.587,0.528c0.167,0,0.37-0.103,0.604-0.306c0.236-0.204,0.426-0.438,0.57-0.701
		c0.16-0.312,0.299-0.464,0.42-0.456c0.119,0.009,0.18,0.092,0.18,0.252c0,0.535-0.252,1.148-0.752,1.84
		c-0.502,0.691-0.949,1.037-1.342,1.037c-0.369,0-0.707-0.269-1.012-0.804l-2.111-3.769c-0.127-0.232-0.242-0.349-0.346-0.349
		c-0.088,0-0.191,0.036-0.311,0.108l-0.455,0.252C128.942,16.712,128.735,17.024,128.687,17.449z"/>
	<path fill="#F7A800" d="M139.53,14.336l1.695,1.834c0.533,0.583,0.801,1.278,0.801,2.085c0,0.808-0.32,1.493-0.959,2.056
		c-0.641,0.563-1.419,0.846-2.338,0.846c-0.695,0-1.289-0.144-1.78-0.43s-0.737-0.632-0.737-1.037c0-0.501,0.242-0.751,0.726-0.751
		c0.282,0,0.544,0.2,0.785,0.6l0.249,0.443c0.223,0.384,0.547,0.575,0.976,0.575c0.468,0,0.874-0.15,1.219-0.451
		s0.517-0.655,0.517-1.064c0-0.649-0.318-1.307-0.955-1.973l-1.337-1.391c-0.613-0.639-0.92-1.322-0.92-2.049
		c0-0.775,0.262-1.381,0.785-1.816s1.245-0.653,2.163-0.653c1.279,0,1.918,0.374,1.918,1.122c0,0.499-0.25,0.748-0.749,0.748
		c-0.25,0-0.46-0.124-0.629-0.372l-0.261-0.371c-0.245-0.368-0.573-0.552-0.984-0.552c-0.681,0-1.021,0.374-1.021,1.122
		C138.693,13.239,138.972,13.732,139.53,14.336z"/>
</g>
<g>
</g>
<g>
</g>
<g>
</g>
<g>
</g>
<g>
</g>
<g>
</g>
</svg>
